name analog
datacolumns 19
datarows 32
range 0.0 0.0155
endheader
time	ground_force_vx	ground_force_vy	ground_force_vz	ground_force_px	ground_force_py	ground_force_pz	l_ground_force_vx	l_ground_force_vy	l_ground_force_vz	l_ground_force_px	l_ground_force_py	l_ground_force_pz	ground_torque_x	ground_torque_y	ground_torque_z	l_ground_torque_x	l_ground_torque_y	l_ground_torque_z
0.0	-0.0	-0.0	-0.0	3.3980324268341064	21.94213104248047	-467.5784301757813	-3.040212392807007	-22.76305389404297	-150.22982788085938	-0.0	-0.0	-0.0	-0.0	-0.0	-0.0	41431.9921875	8368.4482421875	-2256.868896484375
0.0005	-0.0	-0.0	-0.0	3.487196922302246	21.910120010375977	-466.93548583984375	-3.4676902294158936	-22.72247695922852	-150.83349609375	-0.0	-0.0	-0.0	-0.0	-0.0	-0.0	41508.08984375	8789.408203125	-2297.698486328125
0.001	-0.0	-0.0	-0.0	3.193505048751831	21.97572326660156	-465.710205078125	-3.039828062057495	-22.875316619873047	-152.67237854003906	-0.0	-0.0	-0.0	-0.0	-0.0	-0.0	41595.54296875	8644.3505859375	-2254.527099609375
0.0015	-0.0	-0.0	-0.0	3.382140874862671	21.9759521484375	-467.3815307617188	-3.024008274078369	-22.81041717529297	-152.1683807373047	-0.0	-0.0	-0.0	-0.0	-0.0	-0.0	41507.96875	8470.6416015625	-2116.713623046875
0.002	-0.0	-0.0	-0.0	4.080350875854492	22.08879852294922	-466.5199279785156	-3.394293546676636	-22.69094657897949	-152.51815795898438	-0.0	-0.0	-0.0	-0.0	-0.0	-0.0	41518.94140625	8635.0556640625	-2235.575927734375
0.0025	-0.0	-0.0	-0.0	3.153228044509888	22.02291679382324	-465.6133117675781	-2.965951681137085	-23.28626251220703	-152.57925415039062	-0.0	-0.0	-0.0	-0.0	-0.0	-0.0	41775.7265625	8711.8798828125	-2289.58056640625
0.003	-0.0	-0.0	-0.0	3.968459129333496	21.60786819458008	-465.49114990234375	-3.3480496406555176	-22.875316619873047	-151.62216186523438	-0.0	-0.0	-0.0	-0.0	-0.0	-0.0	41637.5078125	8482.9423828125	-2183.9033203125
0.0035	-0.0	-0.0	-0.0	3.716496706008911	21.398876190185547	-467.9334106445313	-3.289870023727417	-23.170433044433597	-151.59140014648438	-0.0	-0.0	-0.0	-0.0	-0.0	-0.0	41384.1640625	8471.04296875	-2210.959228515625
0.004	-0.0	-0.0	-0.0	3.932788372039795	22.11185836791992	-465.64013671875	-3.333453893661499	-23.22860336303711	-152.81015014648438	-0.0	-0.0	-0.0	-0.0	-0.0	-0.0	41718.421875	8575.3955078125	-2297.425048828125
0.0045000000000000005	-0.0	-0.0	-0.0	4.21479082107544	21.807058334350582	-464.5500793457031	-3.555896282196045	-23.2137393951416	-151.93971252441406	-0.0	-0.0	-0.0	-0.0	-0.0	-0.0	41903.9921875	8471.0361328125	-2154.220703125
0.005	-0.0	-0.0	-0.0	3.5161921977996826	21.56216812133789	-467.227783203125	-3.2970640659332275	-22.963638305664062	-151.6770782470703	-0.0	-0.0	-0.0	-0.0	-0.0	-0.0	41587.60546875	8625.6953125	-2341.761962890625
0.0055	-0.0	-0.0	-0.0	3.814044237136841	21.747817993164062	-465.6363525390625	-3.193588256835937	-23.302345275878903	-153.30638122558594	-0.0	-0.0	-0.0	-0.0	-0.0	-0.0	41612.89453125	8471.837890625	-2235.44140625
0.006	-0.0	-0.0	-0.0	3.515490293502808	21.45867729187012	-464.3082275390625	-2.860473871231079	-23.192546844482425	-152.0875701904297	-0.0	-0.0	-0.0	-0.0	-0.0	-0.0	41914.3671875	8601.5419921875	-2314.45458984375
0.006500000000000001	-0.0	-0.0	-0.0	3.725219488143921	21.622682571411133	-467.9349060058594	-3.193588256835937	-23.207115173339844	-151.73001098632812	-0.0	-0.0	-0.0	-0.0	-0.0	-0.0	41551.01171875	8704.1259765625	-2240.18603515625
0.007	-0.0	-0.0	-0.0	3.910940170288086	21.548093795776367	-468.9095458984375	-3.342415571212769	-23.207252502441406	-151.76840209960938	-0.0	-0.0	-0.0	-0.0	-0.0	-0.0	41656.34375	8721.263671875	-2374.2236328125
0.0075	-0.0	-0.0	-0.0	3.65055251121521	21.65868759155273	-467.257080078125	-3.158257246017456	-23.391176223754883	-151.26608276367188	-0.0	-0.0	-0.0	-0.0	-0.0	-0.0	41594.9453125	8259.119140625	-2260.29150390625
0.008	-0.0	-0.0	-0.0	3.711751699447632	20.919618606567383	-467.9078674316406	-2.906437635421753	-22.617326736450195	-152.84568786621094	-0.0	-0.0	-0.0	-0.0	-0.0	-0.0	41629.80859375	8492.1923828125	-2064.001708984375
0.0085	-0.0	-0.0	-0.0	3.3147332668304443	21.56259155273437	-466.5231018066406	-3.343167304992676	-22.94977760314941	-151.23744201660156	-0.0	-0.0	-0.0	-0.0	-0.0	-0.0	41515.015625	8507.51953125	-2121.33642578125
0.009000000000000001	-0.0	-0.0	-0.0	3.904594421386719	21.48042678833008	-469.1306762695313	-3.03680157661438	-23.20121192932129	-150.94178771972656	-0.0	-0.0	-0.0	-0.0	-0.0	-0.0	41472.92578125	8470.8857421875	-2121.099609375
0.0095	-0.0	-0.0	-0.0	3.588950157165528	21.768329620361328	-466.55072021484375	-3.125374555587769	-23.350828170776367	-151.26332092285156	-0.0	-0.0	-0.0	-0.0	-0.0	-0.0	41618.48046875	8676.416015625	-2292.284912109375
0.01	-0.0	-0.0	-0.0	3.677917242050171	21.678955078125	-466.8771057128906	-2.9891598224639893	-22.80716133117676	-152.15037536621094	-0.0	-0.0	-0.0	-0.0	-0.0	-0.0	41492.703125	8536.5927734375	-2143.729736328125
0.0105	-0.0	-0.0	-0.0	3.499309539794922	21.20634078979492	-466.7977600097656	-2.763413906097412	-22.77367401123047	-150.3790283203125	-0.0	-0.0	-0.0	-0.0	-0.0	-0.0	41428.69140625	8163.39501953125	-2148.034912109375
0.011	-0.0	-0.0	-0.0	3.7335338592529297	21.54961395263672	-467.8053894042969	-2.8387451171875	-22.950408935546875	-150.69354248046875	-0.0	-0.0	-0.0	-0.0	-0.0	-0.0	41453.5859375	8477.7236328125	-2264.536865234375
0.0115	-0.0	-0.0	-0.0	3.7534124851226807	21.206470489501957	-465.26806640625	-3.5912106037139893	-22.88838195800781	-151.50596618652344	-0.0	-0.0	-0.0	-0.0	-0.0	-0.0	41572.9453125	8328.74609375	-2274.945556640625
0.012	-0.0	-0.0	-0.0	3.389999389648437	21.60001373291016	-465.9218444824219	-3.3319132328033447	-23.170215606689453	-150.88479614257812	-0.0	-0.0	-0.0	-0.0	-0.0	-0.0	41903.65625	8418.2197265625	-2342.998291015625
0.0125	-0.0	-0.0	-0.0	3.842516660690308	21.225954055786133	-468.3626708984375	-3.174220323562622	-22.875316619873047	-152.8521728515625	-0.0	-0.0	-0.0	-0.0	-0.0	-0.0	41526.45703125	8194.6328125	-2376.87353515625
0.013000000000000001	-0.0	-0.0	-0.0	3.899734735488892	21.2066593170166	-465.39007568359375	-3.104877471923828	-23.114898681640625	-149.88638305664062	-0.0	-0.0	-0.0	-0.0	-0.0	-0.0	41763.5390625	8463.3349609375	-2209.612060546875
0.0135	-0.0	-0.0	-0.0	3.874690055847168	21.264270782470703	-465.869384765625	-3.2062153816223145	-22.96992492675781	-151.95550537109375	-0.0	-0.0	-0.0	-0.0	-0.0	-0.0	41502.54296875	8520.6884765625	-2177.811767578125
0.014	-0.0	-0.0	-0.0	3.663872241973877	21.38506126403809	-467.1829528808594	-3.0286343097686768	-23.456329345703125	-152.3584442138672	-0.0	-0.0	-0.0	-0.0	-0.0	-0.0	41595.92578125	8468.4541015625	-2341.1484375
0.0145	-0.0	-0.0	-0.0	3.402384996414185	21.13009262084961	-465.91790771484375	-2.7809622287750244	-22.963638305664062	-152.03533935546875	-0.0	-0.0	-0.0	-0.0	-0.0	-0.0	41507.140625	8540.3349609375	-2398.1875
0.015	-0.0	-0.0	-0.0	3.5622732639312744	21.953792572021484	-466.01470947265625	-3.193588256835937	-22.899768829345703	-151.83261108398438	-0.0	-0.0	-0.0	-0.0	-0.0	-0.0	41376.06640625	8359.1455078125	-2082.517333984375
0.0155	-0.0	-0.0	-0.0	3.56842041015625	21.63445281982422	-467.8914184570313	-3.364952087402344	-23.045928955078125	-151.8571014404297	-0.0	-0.0	-0.0	-0.0	-0.0	-0.0	41384.2265625	8524.1376953125	-2148.10888671875
